<?xml version="1.0" encoding="utf-8"?>
<!-- Generator: Adobe Illustrator 27.5.0, SVG Export Plug-In . SVG Version: 6.00 Build 0)  -->
<svg version="1.1" xmlns="http://www.w3.org/2000/svg" xmlns:xlink="http://www.w3.org/1999/xlink" x="0px" y="0px"
	 viewBox="0 0 750 500" style="enable-background:new 0 0 750 500;" xml:space="preserve">
<g id="BACKGROUND">
	<rect style="fill:#B3DEF2;" width="750" height="500"/>
</g>
<g id="OBJECTS">
	<g>
		<g>
			<defs>
				<rect id="SVGID_1_" width="750" height="500"/>
			</defs>
			<clipPath id="SVGID_00000142165278113386379860000016674830022621261496_">
				<use xlink:href="#SVGID_1_"  style="overflow:visible;"/>
			</clipPath>
			<g style="clip-path:url(#SVGID_00000142165278113386379860000016674830022621261496_);">
				<path style="fill:#D0E7F2;" d="M766.05,42.039c0,0-40.697,1.237-44.179,38.887c-31.949-8.16-59.924,13.853-60.382,43.891
					c-37.147-5.732-57.719,10.465-60.732,28.048c-16.771-4.43-70.528,15.978-76.21,40.628H766.05V42.039z"/>
				<path style="fill:#D0E7F2;" d="M-20.437,107.986c0,0,53.444-0.84,66.456,43.825c43.22-8.605,78.518,20.237,81.327,42.469
					c30.99-10.936,82.447,1.69,88.763,40.05c39.405-4.251,64.821,37.136,64.821,37.136H-22.296L-20.437,107.986z"/>
				<path style="fill:#84CAE3;" d="M439.974,299.921c0,0,19.788-28.845,44.578-33.164c18.124-30.632,79.475-54,112.32-58.922
					c36.22-45.422,111.595-86.778,162.22-85.225v177.311H439.974z"/>
				<path style="fill:#84CAE3;" d="M-16.568,250c0,0,62.412-69.123,95.552-69.123c28.076,0,66.562,39.149,66.562,39.149
					s28.923-2.252,59.391,29.973c0,0,73.846,11.085,143.282,49.921H-16.568V250z"/>
				<g>
					<circle style="fill:#FFFFFF;" cx="675.338" cy="143.552" r="34.933"/>
					<rect x="672.698" y="167.385" style="fill:#FFFFFF;" width="5.28" height="164.336"/>
					<circle style="fill:#7895CF;" cx="675.338" cy="143.552" r="30.307"/>
				</g>
				<g>
					<rect x="65.704" y="114.052" style="fill:#FFFFFF;" width="5.28" height="214.362"/>
					<g>
						<g>
							<path style="fill:#FFFFFF;" d="M102.151,153.033H35.12c-1.476,0-2.672-1.196-2.672-2.672v-23.343
								c0-1.476,1.196-2.672,2.672-2.672h67.031c0.677,0,1.329,0.257,1.824,0.719l12.494,11.672c1.131,1.056,1.131,2.849,0,3.905
								l-12.494,11.672C103.481,152.775,102.829,153.033,102.151,153.033z"/>
						</g>
						<g>
							<path style="fill:#7895CF;" d="M101.052,149.817H37.194c-1.145,0-2.073-0.928-2.073-2.073v-18.11
								c0-1.145,0.928-2.073,2.073-2.073h63.858c0.525,0,1.031,0.2,1.415,0.558l9.693,9.055c0.877,0.82,0.877,2.21,0,3.03
								l-9.693,9.055C102.083,149.617,101.577,149.817,101.052,149.817z"/>
						</g>
						<g>
							<path style="fill:#FFFFFF;" d="M34.537,188.638h67.031c1.476,0,2.672-1.196,2.672-2.672v-23.343
								c0-1.476-1.196-2.672-2.672-2.672H34.537c-0.677,0-1.329,0.257-1.824,0.719l-12.494,11.672c-1.131,1.056-1.131,2.849,0,3.905
								l12.494,11.672C33.208,188.381,33.86,188.638,34.537,188.638z"/>
						</g>
						<g>
							<path style="fill:#7895CF;" d="M35.637,185.422h63.858c1.145,0,2.073-0.928,2.073-2.073v-18.11
								c0-1.145-0.928-2.073-2.073-2.073H35.637c-0.525,0-1.031,0.2-1.415,0.558l-9.693,9.055c-0.877,0.819-0.877,2.21,0,3.03
								l9.693,9.055C34.605,185.223,35.111,185.422,35.637,185.422z"/>
						</g>
					</g>
				</g>
				<rect x="-16.568" y="299.241" style="fill:#D0E7F2;" width="783.136" height="151.927"/>
				<path style="fill:#44909C;" d="M410.531,451.168c0,0,12.75-22.456,41.437-18.231c14.063-26.988,46.046-33.956,57.336-32.584
					c18.602-25.382,45.387-21.627,45.387-21.627s19.133-43.181,35.83-43.181c16.697,0,21.285,11.31,21.285,11.31
					s4.412-72.147,20.725-75.288c16.312-3.141,24.75,40.51,24.75,40.51s3.938-49.461,28.125-50.78
					c24.187-1.319,29.812,28.162,29.812,28.162s10.688-31.16,51.35-32.826v194.536H410.531z"/>
				<path style="fill:#44909C;" d="M-16.568,451.168V265.645c0,0,73.662-19.848,84.912,16.367c31.5-2.036,46.481,31.9,46.481,31.9
					s25.733,3.752,33.22,31.877c18.737-1.125,31.54,19.125,31.54,19.125s30.509,1.125,35.572,18
					c22.5-3.375,43.031,9.563,48.515,19.688c19.547-1.125,45.667,15.018,51.045,21.242c22.468-2.68,43.861,27.325,43.861,27.325
					H-16.568z"/>
				<rect x="-16.568" y="451.168" style="fill:#324F54;" width="783.136" height="63.089"/>
				<g>
					<path style="fill:#D6F2FF;" d="M152.581,89.556c0,0-9.849-6.786-15.355,1.143c7.071-4.03,15.355,4.608,15.355,4.608
						s8.283-8.638,15.354-4.608C162.43,82.77,152.581,89.556,152.581,89.556z"/>
					<path style="fill:#D6F2FF;" d="M474.007,68.057c0,0-14.654-10.097-22.846,1.701c10.521-5.996,22.846,6.857,22.846,6.857
						s12.325-12.853,22.846-6.857C488.662,57.959,474.007,68.057,474.007,68.057z"/>
					<path style="fill:#D6F2FF;" d="M84.976,57.477c0,0-8.926-6.15-13.915,1.036c6.408-3.652,13.915,4.176,13.915,4.176
						s7.507-7.828,13.915-4.176C93.901,51.327,84.976,57.477,84.976,57.477z"/>
				</g>
			</g>
		</g>
		<g>
			<g>
				<polygon style="fill:#284A69;" points="55.83,437.358 55.83,446.104 49.392,446.104 46.478,437.358 				"/>
				<circle style="fill:#284A69;" cx="55.83" cy="446.104" r="6.439"/>
				<path style="fill:#5094D1;" d="M58.32,446.104c0,1.375-1.115,2.49-2.49,2.49c-1.375,0-2.49-1.115-2.49-2.49
					c0-1.375,1.115-2.49,2.49-2.49C57.206,443.614,58.32,444.729,58.32,446.104z"/>
			</g>
			<g>
				<polygon style="fill:#284A69;" points="74.628,437.358 74.628,446.104 68.189,446.104 65.276,437.358 				"/>
				<circle style="fill:#284A69;" cx="74.628" cy="446.104" r="6.439"/>
				<path style="fill:#5094D1;" d="M77.118,446.104c0,1.375-1.115,2.49-2.49,2.49c-1.375,0-2.49-1.115-2.49-2.49
					c0-1.375,1.115-2.49,2.49-2.49C76.003,443.614,77.118,444.729,77.118,446.104z"/>
			</g>
			<g>
				<polygon style="fill:#284A69;" points="118.472,437.358 118.472,446.104 112.033,446.104 109.119,437.358 				"/>
				<circle style="fill:#284A69;" cx="118.472" cy="446.104" r="6.439"/>
				<path style="fill:#5094D1;" d="M120.962,446.104c0,1.375-1.115,2.49-2.49,2.49c-1.375,0-2.49-1.115-2.49-2.49
					c0-1.375,1.115-2.49,2.49-2.49C119.847,443.614,120.962,444.729,120.962,446.104z"/>
			</g>
			<g>
				<polygon style="fill:#284A69;" points="137.269,437.358 137.269,446.104 130.83,446.104 127.917,437.358 				"/>
				<circle style="fill:#284A69;" cx="137.269" cy="446.104" r="6.439"/>
				<path style="fill:#5094D1;" d="M139.759,446.104c0,1.375-1.115,2.49-2.49,2.49s-2.49-1.115-2.49-2.49
					c0-1.375,1.115-2.49,2.49-2.49S139.759,444.729,139.759,446.104z"/>
			</g>
			<g>
				<g>
					<path style="fill:#284A69;" d="M125.42,312.266H77.173v-51.742c0-5.54,4.507-10.047,10.047-10.047h28.153
						c5.54,0,10.047,4.507,10.047,10.047V312.266z M79.899,309.539h42.794v-49.016c0-4.036-3.284-7.32-7.32-7.32H87.22
						c-4.037,0-7.321,3.284-7.321,7.32V309.539z"/>
				</g>
				<g>
					<path style="fill:#5094D1;" d="M125.635,269.699h-3.157c-0.785,0-1.422-0.637-1.422-1.422v-7.754
						c0-3.139-2.545-5.684-5.684-5.684H87.22c-3.139,0-5.684,2.545-5.684,5.684v7.754c0,0.785-0.636,1.422-1.422,1.422h-3.157
						c-0.785,0-1.422-0.637-1.422-1.422v-7.754c0-6.453,5.231-11.684,11.684-11.684h28.153c6.453,0,11.684,5.231,11.684,11.684
						v7.754C127.056,269.063,126.42,269.699,125.635,269.699z"/>
				</g>
			</g>
			<path style="fill:#284A69;" d="M138.361,438.492h-74.13c-5.2,0-9.416-4.216-9.416-9.416v-122.07c0-5.2,4.216-9.416,9.416-9.416
				h74.13c5.2,0,9.416,4.216,9.416,9.416v122.07C147.777,434.276,143.561,438.492,138.361,438.492z"/>
			<path style="fill:#3A6C99;" d="M124.729,438.492h-74.13c-5.2,0-9.416-4.216-9.416-9.416v-122.07c0-5.2,4.216-9.416,9.416-9.416
				h74.13c5.2,0,9.416,4.216,9.416,9.416v122.07C134.145,434.276,129.929,438.492,124.729,438.492z"/>
			<g>
				<path style="fill:#5094D1;" d="M58.678,426.119L58.678,426.119c-1.434,0-2.597-1.163-2.597-2.597V312.56
					c0-1.434,1.163-2.597,2.597-2.597l0,0c1.434,0,2.597,1.163,2.597,2.597v110.961C61.276,424.956,60.113,426.119,58.678,426.119z"
					/>
				<path style="fill:#5094D1;" d="M73.171,426.119L73.171,426.119c-1.434,0-2.597-1.163-2.597-2.597V312.56
					c0-1.434,1.163-2.597,2.597-2.597l0,0c1.434,0,2.597,1.163,2.597,2.597v110.961C75.769,424.956,74.606,426.119,73.171,426.119z"
					/>
				<path style="fill:#5094D1;" d="M87.664,426.119L87.664,426.119c-1.434,0-2.597-1.163-2.597-2.597V312.56
					c0-1.434,1.163-2.597,2.597-2.597l0,0c1.435,0,2.597,1.163,2.597,2.597v110.961C90.261,424.956,89.099,426.119,87.664,426.119z"
					/>
				<path style="fill:#5094D1;" d="M102.157,426.119L102.157,426.119c-1.435,0-2.597-1.163-2.597-2.597V312.56
					c0-1.434,1.163-2.597,2.597-2.597l0,0c1.434,0,2.597,1.163,2.597,2.597v110.961
					C104.754,424.956,103.591,426.119,102.157,426.119z"/>
				<path style="fill:#5094D1;" d="M116.65,426.119L116.65,426.119c-1.434,0-2.597-1.163-2.597-2.597V312.56
					c0-1.434,1.163-2.597,2.597-2.597l0,0c1.435,0,2.597,1.163,2.597,2.597v110.961C119.247,424.956,118.084,426.119,116.65,426.119
					z"/>
			</g>
		</g>
		<g>
			<g>
				<path style="fill:#3A6C99;" d="M606.075,240.126h-52.524c-5.018,0-9.194-4.068-9.326-9.087l-2.842-107.637
					c-0.133-5.018,3.828-9.086,8.846-9.086h64.353c5.018,0,9.194,4.068,9.326,9.086l2.53,95.808
					C626.743,230.762,617.626,240.126,606.075,240.126z"/>
				<g>
					<path style="fill:#FFFFFF;" d="M611.268,114.316h-73.147c-5.676,0-10.278-4.602-10.278-10.278l0,0
						c0-5.676,4.602-10.278,10.278-10.278h73.147c5.676,0,10.278,4.602,10.278,10.278l0,0
						C621.546,109.715,616.944,114.316,611.268,114.316z"/>
					<circle style="fill:#E6CA91;" cx="611.268" cy="104.038" r="10.278"/>
				</g>
				<path style="fill:#284A69;" d="M602.481,240.126h-64.353c-5.018,0-9.194-4.068-9.326-9.087l-2.842-107.637
					c-0.133-5.018,3.828-9.086,8.847-9.086h64.353c5.018,0,9.194,4.068,9.326,9.086l2.842,107.637
					C611.46,236.058,607.499,240.126,602.481,240.126z"/>
			</g>
			<path style="fill:#3A6C99;" d="M607.302,429.129l5.284,16.453l-6.462,7.624c0,0-10.221,0.814-8.93,6.579l0.773,3.234h39.516
				l-5.964-14.625l-3.25-19.266H607.302z"/>
			<polygon style="fill:#FFFFFF;" points="637.483,463.02 636.164,459.785 597.194,459.785 597.968,463.02 			"/>
			<path style="fill:#3A6C99;" d="M492.077,434.222l-2.415,16.453l-9.523,6.75c0,0-9.984,1.688-11.391,7.453v3.234h38.531v-14.625
				l5.766-19.266H492.077z"/>
			<rect x="468.748" y="464.878" style="fill:#FFFFFF;" width="38.531" height="3.234"/>
			<path style="fill:#E6CA91;" d="M531.378,233.269c0,0-23.449,96.469-27.668,115.875c-4.219,19.406-15.75,89.437-15.75,89.437
				h27.208c0,0,6.26-9.563,6.542-20.813c0.281-11.25,4.781-15.75,6.469-27.281c1.688-11.531,2.18-13.219,3.199-20.812
				c1.019-7.594,4.957-11.25,4.113-18.844l21.656-79.875h3.656l6.001,70.879c0.661,7.812,2.681,15.449,5.969,22.566l32.186,69.679
				h25.594c0,0,1.406-5.625-1.406-14.906c-2.813-9.281-6.75-9.563-7.875-18.844c-1.125-9.281-1.406-17.438-5.344-23.906
				c-3.937-6.469-5.344-7.031-6.75-16.875c-1.406-9.844-3.094-15.75-7.312-20.531c0,0-0.281-66.094,0.281-78.187
				c0.563-12.094-0.141-26.719-2.461-31.5L531.378,233.269z"/>
			<path style="fill:#B0852C;" d="M599.686,229.331l-68.308,3.938c0,0-0.671,2.761-1.804,7.431l72.711,16.065
				C602.535,245.639,601.751,233.587,599.686,229.331z"/>
			<path style="fill:none;stroke:#FFFFFF;stroke-width:0.5;stroke-miterlimit:10;" d="M584.046,232.847
				c0,0-2.103,19.361,18.284,21.352"/>
			
				<line style="fill:none;stroke:#FFFFFF;stroke-width:0.5;stroke-miterlimit:10;" x1="559.432" y1="270.956" x2="555.639" y2="234.113"/>
			<path style="fill:none;stroke:#FFFFFF;stroke-width:0.5;stroke-miterlimit:10;" d="M548.186,234.113l3.018,22.091
				c0.314,2.3,1.669,4.327,3.673,5.498l3.833,2.24"/>
			
				<line style="fill:none;stroke:#FFFFFF;stroke-width:0.5;stroke-miterlimit:10;" x1="546.78" y1="267.441" x2="577.436" y2="264.628"/>
			<path style="fill:#EB8971;" d="M532.105,180.891c0,0-10.81,49.418-27.283,96.261c0,0,1.036,3.93,0.474,7.586
				c-0.563,3.656-0.563,10.594-2.063,11.063c-1.5,0.469,0-6.938-1.969-7.406c-1.969-0.469-3.563,6.281-3.563,6.281
				s2.531,3,1.5,4.688l-2.979-2.844c-0.732-0.699-1.097-1.694-0.988-2.701c0.371-3.434,1.441-11.651,3.686-17.518
				c0,0-5.066-53.015,6.068-73.163l2.121-22.247H532.105z"/>
			<path style="fill:#D4453D;" d="M507.11,180.891l-1.279,13.411c6.308,7.414,12.166,18.944,14.558,32.898
				c7.372-26.46,11.715-46.309,11.715-46.309H507.11z"/>
			<path style="fill:#368C77;" d="M568.602,117.582c5.14,1.59,14.64,4.908,23.725,8.148c14.418,5.14,25.721,16.549,30.741,31.009
				l9.352,26.937l-33.714,0.273l5.686,43.65c0.355,2.727-1.646,5.193-4.388,5.4c-13.959,1.058-52.831,3.926-64.146,3.926
				c-13.875,0-6.188-9.75-6.188-9.75l-6.937-42.563h-30.938l9.418-29.77c4.335-13.704,14.923-24.533,28.526-29.175l13.805-4.711
				L568.602,117.582z"/>
			
				<line style="fill:none;stroke:#1B4447;stroke-width:0.5;stroke-miterlimit:10;" x1="582.264" y1="148.894" x2="589.191" y2="183.948"/>
			<path style="fill:#205054;" d="M585.235,164.351l-0.14-0.759c-0.827-4.486,0.076,1.896-8.736,19.333
				c-7.39,14.622-34.943,26.344-47.519,39.145l0.832,5.104c0,0-7.688,9.75,6.188,9.75c11.406,0,50.814-2.914,64.478-3.951
				c2.563-0.194,4.431-2.499,4.099-5.048l-5.764-44.251l-9.48,0.273L585.235,164.351z"/>
			<path style="fill:#3A6C99;" d="M539.421,122.364c-7.577,2.586-21.188,27.561-16.688,62.249c0,0-13.689-25.204,0.82-56.305
				c1.899-4.07,13.537-7.606,18.03-6.681L539.421,122.364z"/>
			<path style="fill:#3A6C99;" d="M587.632,124.062c-5.273-1.043-17.93,26.942-0.773,47.895l1.266,5.906
				c0,0-11.449-7.864-16.172-24.188c-4.095-14.151,0.393-26.385,3.182-32.062c0.965-1.964,3.27-2.863,5.324-2.106l8.353,3.08
				c1.347,0.497,2.404,1.565,2.885,2.917l0,0L587.632,124.062z"/>
			<g>
				
					<rect x="516.688" y="168.217" transform="matrix(0.9693 -0.2459 0.2459 0.9693 -29.5889 135.6771)" style="fill:#FFFFFF;" width="23.784" height="36.245"/>
				
					<rect x="515.096" y="172.586" transform="matrix(0.9693 -0.2459 0.2459 0.9693 -30.2331 135.362)" style="fill:#205054;" width="23.766" height="32.344"/>
				<path style="fill:#B3DEF2;" d="M525.494,182.902c-3.229,0.819-5.189,4.112-4.37,7.341c0.819,3.229,4.112,5.189,7.341,4.37
					c3.229-0.819,5.189-4.112,4.37-7.341C532.016,184.044,528.723,182.083,525.494,182.902z M521.98,190.413l1.668-0.423
					c0.227,0.782,0.529,1.494,0.886,2.115l-1.321,0.335C522.664,191.88,522.239,191.197,521.98,190.413z M526.509,185.377
					l-0.453-1.786c0.714,0.009,1.481,0.516,2.146,1.356L526.509,185.377z M528.659,185.606c0.374,0.607,0.694,1.321,0.925,2.105
					l-2.334,0.592l-0.557-2.198L528.659,185.606z M525.329,183.776l0.453,1.786l-1.693,0.43
					C524.273,184.936,524.705,184.125,525.329,183.776z M525.966,186.289l0.557,2.198l-2.334,0.592c-0.17-0.8-0.229-1.58-0.19-2.291
					L525.966,186.289z M523.463,189.263l-1.668,0.423c-0.145-0.813-0.098-1.616,0.118-2.369l1.321-0.335
					C523.217,187.697,523.29,188.467,523.463,189.263z M524.374,189.806l2.334-0.592l0.557,2.198l-1.966,0.499
					C524.926,191.303,524.606,190.589,524.374,189.806z M527.45,192.139l0.453,1.786c-0.714-0.01-1.481-0.517-2.146-1.356
					L527.45,192.139z M528.63,193.74l-0.453-1.786l1.693-0.429C529.685,192.58,529.253,193.391,528.63,193.74z M527.992,191.227
					l-0.557-2.198l2.334-0.592c0.17,0.8,0.229,1.58,0.19,2.291L527.992,191.227z M530.495,188.253l1.668-0.423
					c0.145,0.813,0.098,1.616-0.118,2.369l-1.321,0.335C530.742,189.818,530.668,189.049,530.495,188.253z M530.311,187.526
					c-0.227-0.782-0.529-1.494-0.886-2.115l1.321-0.335c0.549,0.559,0.973,1.243,1.233,2.027L530.311,187.526z M530.047,184.48
					l-1.044,0.265c-0.345-0.482-0.726-0.88-1.125-1.191C528.669,183.691,529.403,184.018,530.047,184.48z M523.708,184.611
					c-0.202,0.463-0.347,0.995-0.421,1.583l-1.044,0.265C522.59,185.747,523.079,185.109,523.708,184.611z M523.911,193.036
					l1.044-0.265c0.345,0.482,0.726,0.88,1.125,1.191C525.29,193.824,524.556,193.498,523.911,193.036z M530.25,192.905
					c0.202-0.463,0.347-0.995,0.421-1.583l1.044-0.265C531.369,191.769,530.879,192.407,530.25,192.905z"/>
			</g>
			<g>
				<path style="fill:#EB8971;" d="M539.515,83.42v12.318c0,0-8.156,13.781,6.281,17.438l0.75,7.031l-3,0.75
					c0,0,0.489,5.226,8.625,5.813c10.406,0.75,16.432-9.188,16.432-9.188l-3.963-1.101l-3.187-15.117c0,0,3.562-1.969,3.328-5.625
					c-0.234-3.656-3.984-14.156-3.984-14.156L539.515,83.42z"/>
				<path style="fill:#D4453D;" d="M559.899,104.955c0,0-3.366,13.283-13.633,12.626l-0.751-6.301L559.899,104.955z"/>
				
					<line style="fill:none;stroke:#D4453D;stroke-width:0.5;stroke-miterlimit:10;" x1="546.546" y1="120.207" x2="547.202" y2="123.371"/>
				
					<line style="fill:none;stroke:#D4453D;stroke-width:0.5;stroke-miterlimit:10;" x1="546.077" y1="90.394" x2="544.296" y2="96.16"/>
				<path style="fill:#1C4D33;" d="M551.123,91.836c0,0.796-0.343,1.441-0.765,1.441c-0.423,0-0.765-0.645-0.765-1.441
					c0-0.796,0.342-1.441,0.765-1.441C550.78,90.394,551.123,91.039,551.123,91.836z"/>
				<path style="fill:#1C4D33;" d="M543.077,91.836c0,0.796-0.343,1.441-0.765,1.441c-0.423,0-0.765-0.645-0.765-1.441
					c0-0.796,0.343-1.441,0.765-1.441C542.734,90.394,543.077,91.039,543.077,91.836z"/>
				<path style="fill:none;stroke:#D4453D;stroke-miterlimit:10;" d="M547.999,88.519c0,0,1.822-1.313,4.708,0"/>
				<path style="fill:none;stroke:#D4453D;stroke-miterlimit:10;" d="M544.296,88.707c0,0-1.5-1.547-3.891,0"/>
				<path style="fill:none;stroke:#D4453D;stroke-width:0.5;stroke-miterlimit:10;" d="M559.899,96.933
					c1.26-1.441,4.389-1.688,3.018,0.949"/>
				<path style="fill:#D4453D;" d="M559.577,84.347c0,0-24.328,7.313-25.875-5.063c-1.547-12.375,27.984-9.703,29.25,1.266
					c6.891-0.141,7.453,8.719,1.828,15.187c-0.844-3.797-5.766,0-5.766,0L559.577,84.347z"/>
				<path style="fill:#6496AD;" d="M545.796,113.175c8.109,1.734,14.297-6.938,15.656-11.813c-2.421,2.305-7.5,3-7.922,0.328
					c-0.422-2.672,1.359-4.594,5.484-5.953c-14.109-2.391-19.5,0-19.5,0S531.358,109.519,545.796,113.175z"/>
			</g>
			<g>
				<path style="fill:#EB8971;" d="M590.237,183.918l2.949,14.616l-47.672-6.188c0,0-9.382-5.766-13.41-5.906
					c-4.028-0.141-11.34,1.688-11.059,2.953c0.281,1.266,6.609-0.844,10.125,0.141c0,0-10.406,1.617-10.477,3.375
					c-0.07,1.758,8.337-0.633,11.411,0.281c-3.746,0.703-9.442,1.898-9.301,3.094c0.141,1.195,7.383-0.703,9.914-0.07
					c-4.008,1.125-7.833,1.595-7.643,2.762c0.19,1.166,6.307-0.441,6.307-0.441l3.586,0.563c0,0,4.359,4.008,9.141,2.109
					c0,0,21.094,15.609,46.406,24.047s34.594-5.906,35.156-14.625c0.563-8.719-1.125-26.953-1.125-26.953L590.237,183.918z"/>
				<path style="fill:#D4453D;" d="M624.546,183.675l-34.308,0.243l0.794,3.938l0,0c0,0,15.163-1.77,34.726,16.001
					C625.578,194.826,624.546,183.675,624.546,183.675z"/>
				<path style="fill:#D4453D;" d="M593.186,198.535l9.984,1.453C603.171,199.988,597.686,195.652,593.186,198.535z"/>
			</g>
		</g>
		<g>
			<path style="fill:#EB8971;" d="M240.796,299.241c0,0-2.391,28.266-4.641,53.016c-1.871,20.579-7.63,69.547-9.519,85.467
				c-0.392,3.303,0.356,6.636,2.119,9.457l1.493,2.389l-10.781,5.625l-7.781-4.026c0,0,2.531-6.661,1.406-18.193
				c-1.125-11.531-12.937-71.156-1.406-97.593l-1.688-36.141H240.796z"/>
			<path style="fill:#D4453D;" d="M211.687,335.382c-2.146,4.92-3.483,10.991-4.231,17.686c6.979-7.701,14.9-14.043,21.738-18.805
				c5.785-4.029,9.486-10.406,10.093-17.43c0.896-10.355,1.508-17.592,1.508-17.592h-30.797L211.687,335.382z"/>
			<path style="fill:#EB8971;" d="M214.247,297.601v23.631c0,7.211-2.12,14.264-6.097,20.28l-51.797,78.366
				c-2.621,3.966-4.086,8.584-4.23,13.335l-0.202,6.653l-15.328-8.578v-6.328c0,0,8.438-7.734,13.219-21.234
				c4.781-13.5,23.879-68.008,33.723-77.571l-4.112-28.554H214.247z"/>
			<path style="fill:#368C77;" d="M242.718,216.432c0,0,4.313,15.919,2.063,28.481c-2.25,12.563-1.236,13.714,0.694,20.732
				c1.931,7.018-2.194,18.643-2.382,22.956s0,12.938,0,12.938h-23.625v2.438h-45.037c0,0-3.18-15.938-4.009-23.625
				c-0.829-7.688-1.017-16.687-2.704-24.375c-1.688-7.688-4.582-29.427,0-39.544H242.718z"/>
			<path style="fill:#205054;" d="M194.038,267.39c0,0,4.336,23.555-2.602,26.555c-6.937,3-18.698,1.108-18.698,1.108l-3.287-26.186
				L194.038,267.39z"/>
			<path style="fill:#205054;" d="M219.468,301.538h23.625c0,0-0.089-4.089-0.083-8.044c-3.578-2.629-8.331-4.656-11.355-7.331
				c-4.875-4.313-5.438-12-6.188-18.187s-8.062-12.188-8.062-12.188c1.221,8.187,1.875,7.875,0.938,16.313
				c-0.938,8.437,1.964,19.082,1.875,25.5C220.169,301.156,219.468,301.538,219.468,301.538z"/>
			<polygon style="fill:#C2C2C2;" points="244.686,303.085 219.468,303.085 220.322,296.757 244.686,296.757 			"/>
			<path style="fill:none;stroke:#1B4447;stroke-width:0.3201;stroke-miterlimit:10;" d="M220.218,297.601
				c0.75-6.375-2.813-17.063-1.875-25.5c0.938-8.438,0.283-8.125-0.938-16.313c-0.797-5.344-8.25-9.924-9.234-12.978"/>
			
				<line style="fill:none;stroke:#1B4447;stroke-width:0.3201;stroke-miterlimit:10;" x1="212.701" y1="219.467" x2="212.701" y2="247.873"/>
			<path style="fill:none;stroke:#1B4447;stroke-width:0.3201;stroke-miterlimit:10;" d="M216.784,220.17
				c0,0,0.979,20.531-4.083,22.641"/>
			<polygon style="fill:#FFFFFF;" points="220.968,305.57 172.171,305.57 171.187,299.241 220.968,299.241 			"/>
			<path style="fill:#368C77;" d="M179.348,295.157h-5.387c-4.244,0-7.684-3.44-7.684-7.684v-15.814c0-1.542,1.25-2.792,2.792-2.792
				h23.498v13.07C192.568,289.238,186.649,295.157,179.348,295.157z"/>
			<path style="fill:none;stroke:#1B4447;stroke-width:0.3201;stroke-miterlimit:10;" d="M190.945,270.206l-2.461,5.706
				c-0.64,1.485-2.103,2.447-3.72,2.447h-17.585"/>
			<path style="fill:#84CAE3;" d="M226.766,436.632h-13.431c0.345,9.265-1.648,14.536-1.648,14.536l7.781,4.026l10.781-5.625
				l-1.493-2.389c-1.763-2.821-2.511-6.153-2.119-9.456C226.677,437.382,226.722,437.004,226.766,436.632z"/>
			<path style="fill:#84CAE3;" d="M157.337,418.388l-11.16-6.491c-4.51,8.391-9.585,13.063-9.585,13.063v6.328l15.328,8.578
				l0.202-6.653c0.144-4.752,1.609-9.37,4.23-13.335L157.337,418.388z"/>
			<polygon style="fill:#FFFFFF;" points="192.28,221.233 233.624,221.233 221.624,111.226 193.858,114.111 			"/>
			<polygon style="fill:#1D3026;" points="189.701,75.264 194.044,82.65 198.015,82.134 196.953,74.239 			"/>
			<g>
				<path style="fill:#FFFFFF;" d="M276.767,127.82h-12.067c-0.803,0-1.404-0.651-1.342-1.455l1.873-24.302
					c0.062-0.803,0.763-1.455,1.567-1.455h12.067c0.803,0,1.404,0.651,1.342,1.455l-1.873,24.302
					C278.272,127.169,277.57,127.82,276.767,127.82z"/>
				<g>
					<path style="fill:#242424;" d="M268.826,103.222c-0.032,0.421-0.4,0.762-0.82,0.762c-0.421,0-0.735-0.341-0.703-0.762
						s0.4-0.762,0.82-0.762C268.544,102.461,268.859,102.802,268.826,103.222z"/>
					<path style="fill:#242424;" d="M273.289,103.703h-3.012c-0.265,0-0.464-0.215-0.443-0.481l0,0
						c0.02-0.265,0.252-0.48,0.517-0.48h3.012c0.265,0,0.464,0.215,0.443,0.48l0,0C273.786,103.488,273.555,103.703,273.289,103.703
						z"/>
				</g>
			</g>
			<path style="fill:#EB8971;" d="M262.238,143.476l4.152,7.629l9.844-24.55c0,0-2.25-2.672-2.391-6.609
				c0,0-5.277-2.953-4.607-4.078c0.67-1.125,5.732,2.484,5.732,2.484s-5.625-6.141-5.063-7.125s6.328,5.344,6.328,5.344
				s-4.922-8.578-3.656-9c1.266-0.422,6.609,7.734,6.609,7.734l0.703-9.703c0,0,3.094,9.75,3.094,12.75s-0.563,10.002-0.563,10.002
				s4.641,39.404-2.109,52.623c-6.75,13.219-22.031,7.969-27.703-0.984c-3.25-5.13-15.609-23.906-15.609-23.906L262.238,143.476z"/>
			<path style="fill:#D4453D;" d="M266.39,151.105l-6.797,15.809C259.593,166.914,261.093,154.889,266.39,151.105z"/>
			<path style="fill:#D4453D;" d="M264.317,147.297l-2.08-3.821l-25.239,12.609c0,0,6.699,10.177,11.53,17.593
				C252.003,162.177,261.263,150.828,264.317,147.297z"/>
			<path style="fill:#EB8971;" d="M217.467,68.035l1.565,11.317c0,0,3.953,2.685,2.096,10.031c-1.541,6.094-7.367,7.125-7.367,7.125
				l-0.487,8.719l8.35,6c0,0-3.484,8.719-11.951,8.719c-8.467,0-18.587-3.281-21.799-11.531l6.844-3l2.596-19.125
				c0,0-5.911,0.559-6.423-4.781c-0.512-5.34,5.06-3.844,6.617-2.531l-0.681-5.812L217.467,68.035z"/>
			<path style="fill:none;stroke:#D4453D;stroke-width:0.4956;stroke-miterlimit:10;" d="M197.314,83.242
				c-0.111-2.32-2.397-4.359-4.014-4.113s-1.406,2.777-0.563,3.34"/>
			<path style="fill:#D4453D;" d="M198.26,88.121c0,0,0.03,12.22,15.213,13.538l0.394-6.769L198.26,88.121z"/>
			<path style="fill:#1D3026;" d="M208.312,76.961c0,1.01-0.503,1.828-1.124,1.828c-0.621,0-1.124-0.818-1.124-1.828
				c0-1.01,0.503-1.828,1.124-1.828C207.808,75.133,208.312,75.951,208.312,76.961z"/>
			<path style="fill:#1D3026;" d="M216.749,75.814c0,1.01-0.503,1.828-1.124,1.828c-0.621,0-1.124-0.818-1.124-1.828
				c0-1.01,0.503-1.828,1.124-1.828C216.246,73.985,216.749,74.804,216.749,75.814z"/>
			
				<line style="fill:none;stroke:#D4453D;stroke-width:0.4956;stroke-miterlimit:10;" x1="212.202" y1="75.814" x2="214.124" y2="80.383"/>
			<path style="fill:#3A6C99;" d="M195.894,96.751l-0.466,3.434c0,0,1.704,6.401,7.611,11.323c0,0,0.68,8.531-1.383,19.594
				c-2.063,11.063-1.875,17.25-0.938,24.75s1.688,16.589-0.375,22.92c-2.063,6.33-3.05,17.768-1.056,26.393
				c1.994,8.625,1.806,16.326,1.056,19.975c-0.75,3.649,0.75,6.649,0.75,6.649h-35.438l-15.75-44.812l4.594-33.469l-16.801-4.129
				c0,0,1.895-9.652,3.395-15.84s8.625-16.5,23.625-20.625c15-4.125,25.313-7.5,25.313-7.5S192.091,96.751,195.894,96.751z"/>
			<path style="fill:#284A69;" d="M170.351,144.839c0,0,1.492,18.513,3.648,26.575c2.156,8.062-4.594,12.281-2.156,23.766
				c2.438,11.484-2.578,24.984-2.578,24.984l-15.234-36.75l6.938-28.594l4.875,1.594L170.351,144.839z"/>
			<path style="fill:none;stroke:#3A6C99;stroke-width:0.3201;stroke-miterlimit:10;" d="M170.422,166.23
				c0,0-5.563,22.903-11.47,28.95"/>
			
				<line style="fill:none;stroke:#3A6C99;stroke-width:0.3201;stroke-miterlimit:10;" x1="169.265" y1="189.132" x2="164.531" y2="203.476"/>
			
				<line style="fill:none;stroke:#284A69;stroke-width:0.4956;stroke-miterlimit:10;" x1="171.843" y1="139.445" x2="166.687" y2="154.82"/>
			<path style="fill:none;stroke:#284A69;stroke-width:0.4956;stroke-miterlimit:10;" d="M173.999,143.476
				c0,0-1.688,5.813-5.25,9.375"/>
			<path style="fill:none;stroke:#1C4D33;stroke-width:0.4956;stroke-miterlimit:10;" d="M201.843,111.718
				c0,0-6.68-0.633-7.594,9.07c0,0-4.02-7.317-4.14-13.355"/>
			<path style="fill:#EB8971;" d="M164.53,156.039l-6.187,27l18.375,47.437l4.125,3c0,0-3,9.375-9,11.438l-5.156-9.375
				l-27.471-35.972c-5.821-7.623-7.961-17.435-5.842-26.789l5.249-23.172L164.53,156.039z"/>
			<path style="fill:#D4453D;" d="M161.355,169.894l3.175-13.856l-25.907-6.433l-1.61,7.107
				C149.575,159.636,157.829,166.445,161.355,169.894z"/>
			<g>
				
					<rect x="165.965" y="231.846" transform="matrix(0.8139 -0.581 0.581 0.8139 -103.7264 143.5349)" style="fill:#FFFFFF;" width="12.42" height="3.648"/>
				<path style="fill:#1C4D33;" d="M174.473,232.029c0.906,1.269,0.612,3.033-0.658,3.939c-1.269,0.906-3.033,0.612-3.939-0.658
					c-0.906-1.269-0.612-3.033,0.658-3.939C171.804,230.465,173.567,230.76,174.473,232.029z"/>
				<path style="fill:#FFFFFF;" d="M173.66,232.61c0.585,0.82,0.395,1.959-0.425,2.544c-0.82,0.585-1.959,0.395-2.544-0.425
					c-0.585-0.82-0.395-1.959,0.425-2.544C171.935,231.6,173.074,231.79,173.66,232.61z"/>
			</g>
			<path style="fill:#3A6C99;" d="M213.274,105.226l0.31-5.474l8.788,8.465l14.526,5.199c7.372,2.639,13.577,7.795,17.52,14.56
				l7.821,13.418l-19.66,13.598c0,0-1.365,7.291,0.956,12.479c2.321,5.188,0.683,13.789-0.41,17.749
				c-1.092,3.959-0.546,10.24,2.867,16.383c3.413,6.144,2.458,30.186,2.458,30.186h-27.306c0,0,1.229-4.382,0.137-12.164
				c-1.092-7.782-3.413-9.557-3.14-18.158c0.273-8.601,2.321-24.89,1.502-33.334c-0.819-8.444-2.184-20.533-3.14-28.687
				c-0.784-6.693-0.649-20.308-0.575-24.974c0.017-1.076-0.157-2.143-0.514-3.159L213.274,105.226z"/>
			<path style="fill:#284A69;" d="M241.851,138.367c0,0,5.836,2.719,4.852,4.734c-0.984,2.016,0.214,6.699,2.497,7.31l-6.592,3.566
				c0,0-0.657-1.695-0.757-5.486C241.751,144.7,241.96,140.051,241.851,138.367z"/>
			<path style="fill:#5094D1;" d="M242.578,154.992c0.171-2.162-0.375-3.164-0.375-3.164l19.163-12.134
				c0.91-0.576,2.117-0.262,2.631,0.683l1.11,2.041c0.428,0.787,0.171,1.771-0.587,2.249l-22.317,14.065L242.578,154.992z"/>
			
				<path style="fill:none;stroke:#284A69;stroke-width:0.3201;stroke-linecap:round;stroke-linejoin:round;stroke-miterlimit:10;" d="
				M242.203,151.828c-0.914-2.141-0.211-10.438-0.352-13.461c-0.141-3.023-0.633-6.187-0.633-6.187"/>
			
				<path style="fill:none;stroke:#284A69;stroke-width:0.3201;stroke-linecap:round;stroke-linejoin:round;stroke-miterlimit:10;" d="
				M239.126,143.476h-16.247c0,0-1.255,15.101,8.776,15.257c6.1,0.095,7.875-5.601,7.875-5.601"/>
			<g>
				<path style="fill:#E6CA91;" d="M248.607,196.115c-0.786,1.746-2.859,2.493-4.587,1.668
					c-33.115-15.807-51.168-38.819-60.542-55.588c-7.879-14.094-11.07-26.073-12.215-31.482c-0.348-1.647,0.764-3.243,2.432-3.473
					l4.197-0.579c1.491-0.206,2.896,0.763,3.217,2.234c1.058,4.847,4.049,15.925,11.319,28.814
					c12.502,22.164,31.291,39.322,55.878,51.039c1.66,0.791,2.369,2.776,1.614,4.452L248.607,196.115z"/>
			</g>
			<path style="fill:#CCAA61;" d="M192.428,137.71c-1.27-2.252-2.402-4.443-3.423-6.561L189,131.146
				c3.424,6.557-3.775,14.314-1.386,17.912c8.927,13.805,23.352,30.193,46.06,43.28c2.413,1.216,10.813-5.31,6.797-7.618
				c-0.026-0.015-0.054-0.043-0.081-0.06C219.661,173.172,203.55,157.428,192.428,137.71z"/>
			<path style="fill:#E6CA91;" d="M195.648,142.898l-13.07,25.535c-2.459,4.804-1.127,10.68,3.163,13.955l21.727,16.583
				c5.663,4.323,13.788,3.055,17.865-2.788l8.204-11.757c1.596-2.287,1.258-5.4-0.791-7.292L195.648,142.898z"/>
			<path style="fill:#CCAA61;" d="M196.382,148.476l-1.802,7.865c-0.759,3.314,0.426,6.772,3.059,8.924l30.519,24.937l-1.772,2.433
				l-29.889-24.33c-3.314-2.698-4.577-7.187-3.154-11.216L196.382,148.476z"/>
			<path style="fill:#FFFFFF;" d="M216.854,174.242c0.02,0.854-0.656,1.563-1.51,1.583c-0.854,0.02-1.563-0.656-1.583-1.51
				c-0.02-0.854,0.656-1.563,1.51-1.582C216.126,172.712,216.835,173.388,216.854,174.242z"/>
			<path style="fill:#205054;" d="M180.141,231.788c-1.044,3.789-4.383,11.846-14.196,14.081l0.666,2.925
				c11.892-2.708,15.602-13.023,16.606-17.005H180.141z"/>
			<path style="fill:#6496AD;" d="M206.624,81.133c-3.917,0.909-6.844-1.961-9.272-3.491l0.156,1.335
				c1.658,0.07,6.233,5.461,4.686,8.484c-1.547,3.023-4.881-1.172-4.881-1.172c3.892,8.541,11.631,11.367,16.447,10.219
				c0,0,5.827-1.031,7.367-7.125c1.857-7.346-2.096-10.031-2.096-10.031C214.916,77.57,210.562,80.218,206.624,81.133z"/>
			<g>
				<path style="fill:#FFFFFF;" d="M234.738,64.995c0.41,2.673-12.938,6.938-29.814,9.525s-30.888,2.518-31.298-0.155
					c-0.41-2.673,12.688-8.57,29.563-11.158S234.328,62.322,234.738,64.995z"/>
				<path style="fill:#FFFFFF;" d="M217.89,66.05l-27.874,4.274l-0.064-11.67c-0.014-2.477,1.79-4.59,4.238-4.965l14.732-2.259
					c2.448-0.375,4.802,1.1,5.531,3.467L217.89,66.05z"/>
				<path style="fill:#E6CA91;" d="M218.628,67.349c-9.35,2.987-19.111,4.484-28.926,4.435c0.008-1.631,0.016-3.261,0.024-4.892
					c9.302,0.046,18.553-1.373,27.413-4.203C217.635,64.243,218.132,65.796,218.628,67.349z"/>
			</g>
			
				<path style="fill:none;stroke:#284A69;stroke-width:0.3201;stroke-linecap:round;stroke-linejoin:round;stroke-miterlimit:10;" d="
				M218.255,113.531l4.189,3.461v-8.016c0,0-4.945,3.609-5.789,7.781"/>
			<path style="fill:#5094D1;" d="M139.208,144.844c4.445,0.323,15.675,1.692,27.24,7.472c1.132,0.566,1.749,1.819,1.481,3.056
				l-0.338,1.558c-0.229,1.057-1.335,1.669-2.351,1.297c-4.686-1.715-17.065-6.009-26.854-7.289
				c-1.227-0.161-2.069-1.305-1.847-2.523l0.318-1.743C137.062,145.552,138.072,144.762,139.208,144.844z"/>
			<circle style="fill:#FFFFFF;" cx="176.812" cy="275.898" r="1.125"/>
			<path style="fill:#FFFFFF;" d="M211.499,448.163c0,0,5.823,0.496,8.719,2.813c3.75-4.219,9.281-5.344,9.281-5.344l5.438,6.094
				l10.312,6.094c0,0,9,0.281,8.344,9.188h-46.336l0.773-4.219C208.03,462.788,206.249,454.351,211.499,448.163z"/>
			<path style="fill:#84CAE3;" d="M207.257,467.007h46.336c0.126-1.704-0.106-3.088-0.557-4.219H208.03L207.257,467.007z"/>
			<path style="fill:#FFFFFF;" d="M137.528,423.843c0,0,4.455,3.782,5.47,7.349c5.502-1.261,10.66,1.032,10.66,1.032l0.894,8.118
				l4.865,10.946c0,0,7.168,5.45,1.466,12.324l-37.742-26.88l3.077-2.988C126.218,433.743,129.662,425.837,137.528,423.843z"/>
			<path style="fill:#84CAE3;" d="M123.141,436.731l37.742,26.88c1.091-1.315,1.705-2.577,1.994-3.759l-36.658-26.109
				L123.141,436.731z"/>
		</g>
		<g>
			<g>
				<g>
					<path style="fill:#B0852C;" d="M348.628,352.774h-48.247v-51.742c0-5.54,4.507-10.047,10.047-10.047h28.153
						c5.539,0,10.047,4.507,10.047,10.047V352.774z M303.108,350.047h42.794v-49.016c0-4.036-3.284-7.32-7.32-7.32h-28.153
						c-4.037,0-7.321,3.284-7.321,7.32V350.047z"/>
				</g>
				<g>
					<path style="fill:#E6CA91;" d="M348.843,310.207h-3.157c-0.785,0-1.421-0.637-1.421-1.422v-7.754
						c0-3.139-2.545-5.684-5.684-5.684h-28.153c-3.139,0-5.684,2.545-5.684,5.684v7.754c0,0.785-0.637,1.422-1.422,1.422h-3.157
						c-0.785,0-1.421-0.637-1.421-1.422v-7.754c0-6.453,5.231-11.684,11.684-11.684h28.153c6.453,0,11.684,5.231,11.684,11.684
						v7.754C350.265,309.571,349.628,310.207,348.843,310.207z"/>
				</g>
			</g>
			<path style="fill:#B0852C;" d="M361.57,442.44h-74.13c-5.2,0-9.416-4.216-9.416-9.416v-85.511c0-5.2,4.216-9.416,9.416-9.416
				h74.13c5.2,0,9.416,4.216,9.416,9.416v85.511C370.985,438.225,366.77,442.44,361.57,442.44z"/>
			<path style="fill:#E6CA91;" d="M347.938,442.44h-74.13c-5.2,0-9.416-4.216-9.416-9.416v-85.511c0-5.2,4.216-9.416,9.416-9.416
				h74.13c5.2,0,9.416,4.216,9.416,9.416v85.511C357.353,438.225,353.138,442.44,347.938,442.44z"/>
			<g>
				<path style="fill:#FFFFFF;" d="M281.887,430.067L281.887,430.067c-1.434,0-2.597-1.163-2.597-2.597v-74.402
					c0-1.434,1.163-2.597,2.597-2.597l0,0c1.434,0,2.597,1.163,2.597,2.597v74.402C284.484,428.905,283.321,430.067,281.887,430.067
					z"/>
				<path style="fill:#FFFFFF;" d="M296.38,430.067L296.38,430.067c-1.435,0-2.597-1.163-2.597-2.597v-74.402
					c0-1.434,1.163-2.597,2.597-2.597l0,0c1.434,0,2.597,1.163,2.597,2.597v74.402C298.977,428.905,297.814,430.067,296.38,430.067z
					"/>
				<path style="fill:#FFFFFF;" d="M310.873,430.067L310.873,430.067c-1.435,0-2.597-1.163-2.597-2.597v-74.402
					c0-1.434,1.163-2.597,2.597-2.597l0,0c1.435,0,2.597,1.163,2.597,2.597v74.402C313.47,428.905,312.307,430.067,310.873,430.067z
					"/>
				<path style="fill:#FFFFFF;" d="M325.365,430.067L325.365,430.067c-1.434,0-2.597-1.163-2.597-2.597v-74.402
					c0-1.434,1.163-2.597,2.597-2.597l0,0c1.435,0,2.597,1.163,2.597,2.597v74.402C327.963,428.905,326.8,430.067,325.365,430.067z"
					/>
				<path style="fill:#FFFFFF;" d="M339.858,430.067L339.858,430.067c-1.435,0-2.597-1.163-2.597-2.597v-74.402
					c0-1.434,1.163-2.597,2.597-2.597l0,0c1.434,0,2.597,1.163,2.597,2.597v74.402C342.456,428.905,341.293,430.067,339.858,430.067
					z"/>
			</g>
			<g>
				<path style="fill:#284A69;" d="M287.689,451.006c0,3.502-2.839,6.341-6.341,6.341c-3.502,0-6.341-2.839-6.341-6.341
					c0-3.502,2.839-6.341,6.341-6.341C284.85,444.665,287.689,447.504,287.689,451.006z"/>
				<polygon style="fill:#284A69;" points="281.348,442.392 281.348,451.006 275.007,451.006 272.137,442.392 				"/>
				<path style="fill:#FFFFFF;" d="M283.8,451.006c0,1.354-1.098,2.452-2.452,2.452c-1.354,0-2.452-1.098-2.452-2.452
					c0-1.354,1.098-2.452,2.452-2.452C282.702,448.554,283.8,449.652,283.8,451.006z"/>
			</g>
			<g>
				<circle style="fill:#284A69;" cx="299" cy="451.006" r="6.341"/>
				<polygon style="fill:#284A69;" points="299,442.392 299,451.006 292.659,451.006 289.79,442.392 				"/>
				<path style="fill:#FFFFFF;" d="M301.452,451.006c0,1.354-1.098,2.452-2.452,2.452c-1.354,0-2.452-1.098-2.452-2.452
					c0-1.354,1.098-2.452,2.452-2.452C300.354,448.554,301.452,449.652,301.452,451.006z"/>
			</g>
			<g>
				<circle style="fill:#284A69;" cx="341.565" cy="451.006" r="6.341"/>
				<polygon style="fill:#284A69;" points="341.565,442.392 341.565,451.006 335.224,451.006 332.355,442.392 				"/>
				<path style="fill:#FFFFFF;" d="M344.017,451.006c0,1.354-1.098,2.452-2.452,2.452s-2.452-1.098-2.452-2.452
					c0-1.354,1.098-2.452,2.452-2.452S344.017,449.652,344.017,451.006z"/>
			</g>
			<g>
				<path style="fill:#284A69;" d="M365.558,451.006c0,3.502-2.839,6.341-6.341,6.341c-3.502,0-6.341-2.839-6.341-6.341
					c0-3.502,2.839-6.341,6.341-6.341C362.719,444.665,365.558,447.504,365.558,451.006z"/>
				<polygon style="fill:#284A69;" points="359.217,442.392 359.217,451.006 352.876,451.006 350.007,442.392 				"/>
				<path style="fill:#FFFFFF;" d="M361.67,451.006c0,1.354-1.098,2.452-2.452,2.452c-1.354,0-2.452-1.098-2.452-2.452
					c0-1.354,1.098-2.452,2.452-2.452C360.572,448.554,361.67,449.652,361.67,451.006z"/>
			</g>
		</g>
		<g>
			<path style="fill:#EB8971;" d="M398.801,264.174l-4.922,183.609h-11.56c0,0-19.527-73.5-8.296-116.25
				c0,0-10.199-47.859-8.296-70.312L398.801,264.174z"/>
			<g>
				<path style="fill:#EB8971;" d="M413.221,264.174L432.7,447.783h11.56c0,0,13.7-73.5-0.92-116.25c0,0,6.404-47.859,2.722-70.312
					L413.221,264.174z"/>
				<path style="fill:#FFFFFF;" d="M446.522,433.064c-1.21,9.069-2.262,14.719-2.262,14.719H432.7l-1.561-14.719L446.522,433.064z"
					/>
				<path style="fill:#E6AE3A;" d="M445.24,441.881l0.873,4.871l4.163,9.937c0,0,4.02,4.594,4.357,6.469
					c0.336,1.875,0.357,4.5,0.357,4.5s-2.758,1.875-9.14,1.781c-6.382-0.094-10.741-4.219-10.741-4.219s-3.176-1.031-3.588-1.5
					c-0.412-0.469,0.091-7.125,0.091-7.125l0.522-11.156l-0.297-3.75l1.601,0.094l0.628,3.188l1.129-2.33
					c0.404-0.834,1.199-1.395,2.14-1.512l5.93-0.733C444.183,440.282,445.074,440.953,445.24,441.881z"/>
			</g>
			<path style="fill:#1D3026;" d="M392.068,96.463c-0.438-4.976,3.499-11.234,14.468-9.968c10.969,1.266,13.289,17.297,4.922,22.711
				L392.068,96.463z"/>
			<circle style="fill:#1D3026;" cx="414.727" cy="85.748" r="7.137"/>
			<g>
				<path style="fill:#368C77;" d="M453.935,261.114c-2.518-5.511-2.912-11.759-3.258-17.272c-0.088-1.397-0.172-2.735-0.289-3.982
					l-0.139-1.515c-0.556-6.117-1.395-15.361-4.174-21.157l3.607-1.729c3.09,6.446,3.969,16.122,4.55,22.525l0.138,1.502
					c0.121,1.286,0.208,2.665,0.299,4.105c0.324,5.167,0.692,11.023,2.904,15.861L453.935,261.114z"/>
			</g>
			<g>
				<path style="fill:#368C77;" d="M348.036,254.08v-4c9.903,0,12.974-20.207,14.449-29.919c0.404-2.661,0.724-4.763,1.081-6.03
					l3.85,1.086c-0.29,1.027-0.608,3.121-0.976,5.545C364.671,232.406,361.378,254.08,348.036,254.08z"/>
			</g>
			<path style="fill:#205054;" d="M446.68,165.967c0,0,3.503-40.871-4.372-47.181c-7.256-5.814-32.641-3.367-36.589-2.946
				c-3.948-0.421-29.333-2.868-36.589,2.946c-7.875,6.31-4.372,47.181-4.372,47.181s-14.488,48.199-2.378,55.808
				c10.371,6.516,35.666,7.08,42.721,7.108c0.093,0,0.19,0.001,0.303,0.001c0.112,0,0.215,0,0.315,0c0.101,0,0.203,0,0.315,0
				c0.113,0,0.21-0.001,0.303-0.001c7.055-0.028,32.349-0.592,42.72-7.108C461.168,214.166,446.68,165.967,446.68,165.967z"/>
			<path style="fill:#B3225F;" d="M375.642,207.668c0,0-15.454,23.989-11.786,61.722h37.336v-23.497h5.063l4.5,23.497h39.797
				c0,0,2.109-30.861-13.464-61.722H375.642z"/>
			<path style="fill:#851938;" d="M372.489,213.688c7.489,5.518,28.391,16.298,70.777,8.623c-1.665-4.798-3.695-9.719-6.179-14.642
				h-61.445C375.642,207.668,374.292,209.772,372.489,213.688z"/>
			<g>
				
					<line style="fill:none;stroke:#5C1130;stroke-width:0.4984;stroke-miterlimit:10;" x1="404.005" y1="215.799" x2="405.411" y2="245.893"/>
				<path style="fill:none;stroke:#5C1130;stroke-width:0.4984;stroke-miterlimit:10;" d="M398.801,214.674
					c0,0-0.019,24.262,6.319,24.998"/>
				<path style="fill:none;stroke:#5C1130;stroke-width:0.4984;stroke-miterlimit:10;" d="M429.176,211.58
					c0,0,0.999,18.559,17.023,20.389"/>
				<path style="fill:none;stroke:#5C1130;stroke-width:0.4984;stroke-miterlimit:10;" d="M382.32,213.127
					c0,0-4.386,19.796-16.593,21.288"/>
			</g>
			<path style="fill:#D4453D;" d="M335.942,187.908c3.75-10.688,24.937-41.062,24.937-41.062l20.198,13.556l-34.448,36.506
				L335.942,187.908z"/>
			<path style="fill:#D4453D;" d="M476.787,187.908c-3.75-10.688-24.937-41.062-24.937-41.062l-20.198,13.556l34.448,36.506
				L476.787,187.908z"/>
			<path style="fill:#FAC42F;" d="M433.135,163.908l24.307-15.891l-14.366-13.673c-5.318-5.062-10.022-9.096-18.447-11.218
				c-2.065-0.52-4.968-0.874-6.469-1.031l-11.906,5.25l-11.915-3.656c-1.501,0.157-3.495,0.477-5.59,0.858
				c-7.277,1.324-13.999,4.735-19.317,9.797l-14.366,13.673l24.307,15.891l2.288,26.719l-9.151,17.438
				c0,0,7.292,10.969,33.744,10.969c26.452,0,33.744-10.969,33.744-10.969l-9.151-17.438L433.135,163.908z"/>
			<path style="fill:#368C77;" d="M384.265,124.668c0,0,3.806,23.772-4.891,39.241l0.386,4.505c0,0,13.839-18.286,11.969-45.286
				L384.265,124.668z"/>
			<path style="fill:#368C77;" d="M428.895,123.479c0,0-4.154,24.961,4.543,40.43l-0.386,4.505c0,0-13.691-19.763-11.822-46.763
				L428.895,123.479z"/>
			<g>
				<polygon style="fill:#FFFFFF;" points="388.067,194.283 369.259,189.396 363.856,146.846 385.462,153.25 				"/>
				<polygon style="fill:#B3DEF2;" points="388.067,194.283 406.255,189.396 406.255,146.846 385.462,153.25 				"/>
				<polygon style="fill:#FFFFFF;" points="424.442,194.283 406.255,189.396 406.255,146.846 427.047,153.25 				"/>
				<polygon style="fill:#B3DEF2;" points="424.442,194.283 443.25,189.396 448.653,146.846 427.047,153.25 				"/>
			</g>
			<g>
				<path style="fill:#941C4E;" d="M410.755,269.39h39.797c0,0,0.141-2.101,0.078-5.732h-40.972L410.755,269.39z"/>
				<path style="fill:#941C4E;" d="M363.447,263.658c0.092,1.876,0.219,3.781,0.409,5.732h37.336v-5.732H363.447z"/>
			</g>
			<path style="fill:#FFFFFF;" d="M378.891,433.064c1.929,9.069,3.429,14.719,3.429,14.719h11.56l0.395-14.719H378.891z"/>
			<path style="fill:#EB8971;" d="M365.755,182.752c2.625,0,3.563-8.438,3.563-8.438s5.906-0.563,6.31-1.313
				c0.403-0.75-7.435-0.469-7.435-0.469s7.77-2.953,7.406-4.12c-0.421-1.351-7.594,1.495-7.594,1.495s7.594-5.531,6.844-6.469
				s-7.781,3.844-7.781,3.844s3.75-8.063,2.906-8.531c-0.844-0.469-6.656,9.661-6.656,9.661l-1.219,8.339l-26.156,11.156
				c0,0-3.154,11.558,2.002,15.965C348.776,213.129,360.786,193.627,365.755,182.752z"/>
			<path style="fill:#EB8971;" d="M446.974,182.752c-2.625,0-3.563-8.438-3.563-8.438s-5.906-0.563-6.31-1.313
				c-0.403-0.75,7.435-0.469,7.435-0.469s-7.77-2.953-7.406-4.12c0.421-1.351,7.594,1.495,7.594,1.495s-7.594-5.531-6.844-6.469
				s7.781,3.844,7.781,3.844s-3.75-8.063-2.906-8.531c0.844-0.469,6.656,9.661,6.656,9.661l1.219,8.339l26.156,11.156
				c0,0,3.154,11.558-2.002,15.965C463.953,213.129,451.943,193.627,446.974,182.752z"/>
			<path style="fill:#EB8971;" d="M392.068,96.463l0.584,4.541c0,0-4.256,12.35,5.517,14.6l0.565,7.471l-5.041,0.615
				c0,0,1.406,10.125,12,10.125c10.594,0,12.469-11.719,12.469-11.719l-5.344-0.188l-1.601-15.552c0,0,1.507,0.458,2.703-1.159
				c1.195-1.617,0.07-7.805-4.219-3.586c-0.496-2.419-1.033-4.605-1.479-6.293c-0.564-2.139-2.506-3.609-4.717-3.613
				c-2.602-0.004-6.104,0.169-8.963,0.949C392.884,93.107,391.849,94.759,392.068,96.463z"/>
			<path style="fill:none;stroke:#D4453D;stroke-width:0.5;stroke-miterlimit:10;" d="M410.145,103.58
				c0.094-1.313,2.825-3.328,2.906-0.469"/>
			<path style="fill:#D4453D;" d="M411.715,111.204l-0.499-4.848l-7.821,1.724l-8.135,6.332c0.795,0.513,1.75,0.925,2.908,1.192
				l0.285,3.777c1.225,0.754,2.766,1.196,4.66,0.841C407.761,119.35,410.475,114.279,411.715,111.204z"/>
			
				<line style="fill:none;stroke:#D4453D;stroke-width:0.5;stroke-miterlimit:10;" x1="398.274" y1="97.358" x2="397.184" y2="103.194"/>
			<g>
				<path style="fill:#1D3026;" d="M403.108,97.965c0.041,0.776-0.288,1.424-0.735,1.448c-0.447,0.024-0.844-0.586-0.885-1.361
					c-0.041-0.776,0.288-1.424,0.735-1.448C402.67,96.58,403.067,97.19,403.108,97.965z"/>
				<path style="fill:#1D3026;" d="M396.321,98.328c0.041,0.776-0.288,1.424-0.735,1.447c-0.447,0.024-0.844-0.586-0.885-1.361
					c-0.041-0.776,0.288-1.424,0.735-1.448C395.883,96.943,396.279,97.552,396.321,98.328z"/>
			</g>
			<path style="fill:none;stroke:#1D3026;stroke-width:0.75;stroke-miterlimit:10;" d="M400.454,95.53c0,0,2.162-1.406,4.491-0.246"
				/>
			<path style="fill:none;stroke:#1D3026;stroke-width:0.75;stroke-miterlimit:10;" d="M396.973,95.94c0,0-1.406-1.266-3.328,0.188"
				/>
			<g>
				<path style="fill:#6496AD;" d="M411.217,106.363l-0.001-0.006c0,0-3.233,1.116-4.053-1.299c-1.04-3.062,2.537-3.446,2.537-3.446
					c-0.049-0.24-0.1-0.466-0.15-0.701c-4.302-0.431-10.216-0.258-13.786-0.087c-1.976,0.095-3.596,1.58-3.864,3.54
					c-0.523,3.829-0.204,9.75,6.269,11.24c6.422,1.359,10.175-2.28,11.964-4.857C411.017,109.472,411.376,107.906,411.217,106.363z"
					/>
			</g>
			<path style="fill:#E6AE3A;" d="M380.871,441.881l-0.487,4.871l-3.375,9.938c0,0-3.656,4.594-3.844,6.469s0,4.5,0,4.5
				s2.906,1.875,9.281,1.781c6.375-0.094,10.406-4.219,10.406-4.219s3.094-1.031,3.469-1.5c0.375-0.469-0.656-7.125-0.656-7.125
				l-1.406-11.156v-3.75l-1.594,0.094l-0.375,3.188l-1.314-2.33c-0.471-0.834-1.309-1.395-2.26-1.512l-5.988-0.733
				C381.802,440.282,380.964,440.953,380.871,441.881z"/>
			<path style="fill:none;stroke:#D4453D;stroke-width:0.5;stroke-miterlimit:10;" d="M382.146,333.502c0,0,0.644,5.722,7.608,7.031
				"/>
			<path style="fill:none;stroke:#D4453D;stroke-width:0.5;stroke-miterlimit:10;" d="M434.942,330.408c0,0-0.45,7.32-7.125,7.875"
				/>
		</g>
	</g>
</g>
</svg>
